<svg height="512" viewBox="0 0 500 500" width="512" xmlns="http://www.w3.org/2000/svg"><g id="圖層_10" data-name="圖層 10"><circle cx="248.34" cy="250" fill="#d8eef5" r="212.52"/><ellipse cx="248.34" cy="249.76" fill="#f1f7f8" rx="212.52" ry="207.8" transform="matrix(.605 -.796 .796 .605 -100.79 296.22)"/><path d="m253.6 244.74h170.32a175.68 175.68 0 0 0 -170.32-170.33z" fill="#f2d382"/><path d="m243.07 295v-220.59a175.77 175.77 0 0 0 -164.59 220.59z" fill="#8bc782"/><path d="m243.07 305.48h-161.46a175.76 175.76 0 0 0 161.46 120.11z" fill="#f8cad6"/><path d="m253.6 255.26v170.33a175.68 175.68 0 0 0 170.32-170.33z" fill="#f6ab43"/><path d="m132.84 192.71a17.94 17.94 0 0 0 3.45-5.9 18 18 0 0 0 24.12-.09l.16-.13a17.81 17.81 0 0 0 3.78-5.07 19 19 0 0 0 2.21 1 18 18 0 1 0 6.92-34.71c-.33-.41-.67-.83-1-1.22a18 18 0 0 0 -30.11 6.32 17.94 17.94 0 0 0 -30.25 11.53 18 18 0 1 0 19.47 29.56c.41-.39.85-.83 1.25-1.29z" fill="#00834e"/><path d="m166.56 182.52a19 19 0 0 1 -2.21-1 17.81 17.81 0 0 1 -3.78 5.07l-.16.13.36 4.79z" fill="none"/><path d="m146.84 191.36a17.89 17.89 0 0 1 -5.27-1.27l6.13 5.91z" fill="none"/><path d="m166.56 182.52-5.79 9-.36-4.79a17.91 17.91 0 0 1 -13.57 4.64l.86 4.65-6.13-5.92a17.84 17.84 0 0 1 -5.28-3.28 17.94 17.94 0 0 1 -3.45 5.9l16.83 15.92 1.35 7.26a6 6 0 0 0 5.65 4.91 9.77 9.77 0 0 0 5.92-1.83 6 6 0 0 0 2.52-5.63l-1.65-14 9.89-15.62a18 18 0 0 1 -6.79-1.21z" fill="#fff"/><g opacity=".2"><path d="m137.42 166.48a3.36 3.36 0 1 0 -4.76-.16 3.35 3.35 0 0 0 4.76.16z" fill="#fff"/></g><g opacity=".2"><path d="m113.14 179.93a3.36 3.36 0 1 0 4.76.16 3.37 3.37 0 0 0 -4.76-.16z" fill="#fff"/></g><path d="m318.3 268.68a56.07 56.07 0 0 0 -14.15 2.11 21.93 21.93 0 0 0 -14.24 29.31c3.92 9.53 11 20.12 23.92 26.4 19 9.27 45.67 6.72 60.49 4.22a48 48 0 0 0 5 16.6 4.53 4.53 0 0 0 8.55-2.25l-.68-15.84 12.28-8c4.24-2.76 1.43-9.27-3.52-8.18a61.49 61.49 0 0 0 -15.28 6c-7-13.11-21.61-36.23-40.94-45.65a46.38 46.38 0 0 0 -21.43-4.65" fill="#ea5442"/><path d="m302.87 311.12s8.75 21.36 53 17.19c-.01 0-33.68 2.52-53-17.19z" fill="#fff"/><path d="m304 283.6a2.47 2.47 0 1 0 -3.3 1.14 2.47 2.47 0 0 0 3.3-1.14z" fill="#fff"/><path d="" fill="#fff"/><path d="m311.35 301.77s18.21-11.43 6.95-33.09a31.61 31.61 0 0 1 -6.95 33.09z" fill="#fff"/><path d="m321.34 128.41-46.65 9a14.37 14.37 0 0 0 -11.38 16.84l2.69 13.75a6 6 0 0 0 7 4.8l6.28 32.52a9.91 9.91 0 0 0 11.61 7.85l43.6-8.43a9.91 9.91 0 0 0 7.84-11.61l-6.29-32.52a6 6 0 0 0 4.77-7.06l-2.66-13.76a14.37 14.37 0 0 0 -16.81-11.38zm16.41 24a5.57 5.57 0 0 1 -4.42 6.53l6.37 32.91a9.17 9.17 0 0 1 -7.27 10.75l-40.37 7.81a9.17 9.17 0 0 1 -10.75-7.27l-6.37-32.91a5.57 5.57 0 0 1 -6.53-4.41l-2.06-10.66a13.3 13.3 0 0 1 10.54-15.59l43.21-8.36a13.32 13.32 0 0 1 15.59 10.54z" fill="#7f4f21"/><circle cx="277.33" cy="158.94" fill="#7f4f21" r="1.8"/><circle cx="302.12" cy="154.14" fill="#7f4f21" r="1.8"/><circle cx="313.24" cy="145.12" fill="#7f4f21" r="1.8"/><circle cx="326.91" cy="149.35" fill="#7f4f21" r="1.8"/><circle cx="288.43" cy="149.82" fill="#7f4f21" r="1.8"/><path d="m320.1 131.2-43.21 8.36a13.3 13.3 0 0 0 -10.54 15.59l2.06 10.66a5.57 5.57 0 0 0 6.53 4.41l6.37 32.91a9.17 9.17 0 0 0 10.75 7.27l40.37-7.81a9.17 9.17 0 0 0 7.27-10.75l-6.37-32.91a5.57 5.57 0 0 0 4.42-6.53l-2.06-10.66a13.32 13.32 0 0 0 -15.59-10.54zm-42.43 29.5a1.8 1.8 0 1 1 1.43-2.11 1.8 1.8 0 0 1 -1.43 2.11zm11.1-9.11a1.8 1.8 0 1 1 1.42-2.11 1.8 1.8 0 0 1 -1.42 2.11zm13.69 4.32a1.8 1.8 0 1 1 1.43-2.11 1.8 1.8 0 0 1 -1.43 2.11zm11.12-9a1.8 1.8 0 1 1 1.42-2.11 1.8 1.8 0 0 1 -1.42 2.09zm13.67 4.23a1.8 1.8 0 1 1 1.43-2.11 1.8 1.8 0 0 1 -1.43 2.09z" fill="#fff"/><path d="m389.63 184.63a3.85 3.85 0 0 0 -4-4.29c1.37-18.34-.63-31.34-9.84-34.17s-18.06 6.65-27.4 23.21a3.84 3.84 0 0 0 -6.33.73c-28.25 54.83 2.07 64.63 6 65.64 3.75 1.34 34.38 10.14 41.57-51.12zm-27.63-15.13a57.05 57.05 0 0 0 12.74 4q-.89 6.24-2.06 12.43a63.7 63.7 0 0 1 -16.53-5.25q2.46-5.79 5.21-11.44zm.33-1.1-.47-.22q2.5-5.09 5.23-10.06a45.77 45.77 0 0 0 9.12 2.94c-.21 2.1-.43 4.2-.68 6.29-.19 1.66-.41 3.32-.64 5a56.33 56.33 0 0 1 -12.56-3.95zm-11 56.51a124.61 124.61 0 0 0 2.22-12.66c1 .35 2 .67 3 1a126.32 126.32 0 0 0 -5.22 11.66zm5.73-12.69c-1.14-.34-2.26-.71-3.39-1.11a95.6 95.6 0 0 0 .49-15.27 80.8 80.8 0 0 0 10.91 3.56 96.3 96.3 0 0 0 -8.01 12.82zm15.88-21.91c.22-1 .44-2.08.65-3.12.78.11 1.56.18 2.35.26-.94.88-1.94 1.83-3 2.86zm-1.5 1.54a79.84 79.84 0 0 0 -5.61 6.56 78 78 0 0 1 -11.74-3.8c-.17-2.5-.43-4.82-.76-7 .25-.63.47-1.28.72-1.91.54-1.35 1.1-2.69 1.66-4a65.83 65.83 0 0 0 15.49 5.13c.42.08.84.13 1.26.2-.32 1.59-.67 3.2-1.02 4.82zm-18.44-6.45q-.57-3.1-1.25-5.76c.4.22.8.45 1.2.66l1.76.88c-.62 1.4-1.18 2.82-1.71 4.22zm29.65-3.57c-1.64 1.32-3.51 2.82-5.53 4.6-1.1-.1-2.2-.2-3.29-.37q1.18-6.17 2.07-12.39a49.9 49.9 0 0 0 7.33.64c-.15 2.38-.35 4.9-.61 7.52zm.63-8.67a49.91 49.91 0 0 1 -7.22-.63q.78-5.62 1.3-11.27a39.35 39.35 0 0 0 5.52.62 67 67 0 0 1 .37 11.28zm-.58-12.43a43.62 43.62 0 0 1 -5.23-.61c.18-2 .35-4.07.48-6.11.07-1.08.14-2.16.2-3.24 2.32 2.05 3.77 5.46 4.52 9.96zm-7.77-11.73a8.55 8.55 0 0 1 2.1 1c-.14 3.32-.39 6.64-.71 9.95a46 46 0 0 1 -8.68-2.79c.94-1.72 1.91-3.43 2.89-5.13.66-1.13 1.33-2.26 2-3.38a9.1 9.1 0 0 1 2.4.35zm-3.79-.32q-2.38 3.93-4.57 8a48.27 48.27 0 0 1 -4.57-2.37c3.07-3.31 6.09-5.24 9.14-5.64zm-9.93 6.47a50.11 50.11 0 0 0 4.82 2.51c-1 1.93-2.07 3.87-3.07 5.82-.72 1.41-1.42 2.82-2.12 4.25a53.07 53.07 0 0 1 -6.23-3.42 67 67 0 0 1 6.6-9.17zm-7.21 10.13a50.77 50.77 0 0 0 6.31 3.45q-2.74 5.64-5.22 11.42c-1.29-.64-2.55-1.33-3.79-2-.52-1.93-1.05-3.69-1.54-5.28 1.45-2.75 2.86-5.28 4.24-7.59z" fill="#7f4f21"/><g fill="#fff"><path d="m371.44 191.85c.35-1.62.7-3.23 1-4.85-.42-.07-.84-.12-1.26-.2a65.83 65.83 0 0 1 -15.49-5.13c-.56 1.35-1.12 2.69-1.66 4-.25.63-.47 1.28-.72 1.91.33 2.17.59 4.49.76 7a78 78 0 0 0 11.74 3.8 79.84 79.84 0 0 1 5.63-6.53z"/><path d="m373.59 187.19c-.21 1-.43 2.08-.65 3.12 1-1 2-2 3-2.86-.79-.08-1.57-.15-2.35-.26z"/><path d="m362 169.5-.64-.29q-2.75 5.65-5.21 11.44a63.7 63.7 0 0 0 16.53 5.25q1.19-6.19 2.06-12.43a57.05 57.05 0 0 1 -12.74-3.97z"/><path d="m365.07 199.4a80.8 80.8 0 0 1 -10.91-3.56 95.6 95.6 0 0 1 -.49 15.27c1.13.4 2.25.77 3.39 1.11a96.3 96.3 0 0 1 8.01-12.82z"/><path d="m383.2 174.31a49.9 49.9 0 0 1 -7.33-.64q-.89 6.22-2.07 12.39c1.09.17 2.19.27 3.29.37 2-1.78 3.89-3.28 5.53-4.6.26-2.62.46-5.14.58-7.52z"/><path d="m360.33 168.73a50.77 50.77 0 0 1 -6.31-3.45c-1.4 2.31-2.81 4.84-4.24 7.55.49 1.59 1 3.35 1.54 5.28 1.24.71 2.5 1.4 3.79 2q2.48-5.73 5.22-11.38z"/><path d="m352.92 180.3c-.4-.21-.8-.44-1.2-.66q.67 2.66 1.25 5.76c.56-1.41 1.12-2.82 1.71-4.22z"/><path d="m376 172.53a49.91 49.91 0 0 0 7.22.63 67 67 0 0 0 -.4-11.28 39.35 39.35 0 0 1 -5.52-.62q-.49 5.66-1.3 11.27z"/><path d="m363 163.47c1-1.95 2-3.89 3.07-5.82a50.11 50.11 0 0 1 -4.82-2.51 67 67 0 0 0 -6.6 9.16 53.07 53.07 0 0 0 6.23 3.42c.66-1.43 1.36-2.84 2.12-4.25z"/><path d="m367.64 157.12a46 46 0 0 0 8.68 2.79c.32-3.31.57-6.63.71-9.95a8.55 8.55 0 0 0 -2.1-1 9.1 9.1 0 0 0 -2.4-.38c-.67 1.12-1.34 2.25-2 3.38-.98 1.73-1.95 3.44-2.89 5.16z"/><path d="m377.44 160.12a43.62 43.62 0 0 0 5.23.61c-.75-4.5-2.2-7.91-4.55-10-.06 1.08-.13 2.16-.2 3.24-.13 2.08-.3 4.11-.48 6.15z"/><path d="m374.89 172.33c.23-1.66.45-3.32.64-5 .25-2.09.47-4.19.68-6.29a45.77 45.77 0 0 1 -9.12-2.94q-2.73 5-5.23 10.06l.47.22a56.33 56.33 0 0 0 12.56 3.95z"/><path d="m371.14 148.67c-3.05.4-6.07 2.36-9.14 5.61a48.27 48.27 0 0 0 4.57 2.37q2.19-4.05 4.57-7.98z"/><path d="m356.53 213.23c-1-.31-2-.63-3-1a124.61 124.61 0 0 1 -2.22 12.66 126.32 126.32 0 0 1 5.22-11.66z"/></g><path d="m232.72 371.48a13.41 13.41 0 0 1 -3.86-9.54c0-.4 0-.8 0-1.2 0-14.16-7.37-25.63-16.46-25.63a9.91 9.91 0 0 0 -1.33.09c-8.46 1.05-15.12 12.08-15.12 25.54v1.09a13.38 13.38 0 0 1 -3.92 9.57 13 13 0 0 0 -3.6 9.46 13.12 13.12 0 0 0 9 11.8 13.8 13.8 0 0 0 6.48.49l5.34-.76a22.18 22.18 0 0 1 6.09 0l5.35.76a13.83 13.83 0 0 0 6.46-.48 13.14 13.14 0 0 0 9-11.73 13 13 0 0 0 -3.43-9.46z" fill="#c8203d"/><g opacity=".3"><path d="m229.23 370.48a17.23 17.23 0 0 1 -1.74-5c-.3-5.24-.59-18.82-8.49-25.35 0 0 7 9.8 5.53 25.64-.13 1.44 6.85 12.69 5.18 20.07 0-.03 4.53-6.05-.48-15.36z" fill="#fff"/></g><path d="m160.05 383.49a8.86 8.86 0 1 0 15.32-5 8.85 8.85 0 0 0 5.63-11.17 8.62 8.62 0 0 0 -1.56-2.82 8.85 8.85 0 0 0 5.56-11.09 9.11 9.11 0 0 0 -1.48-2.71 8.81 8.81 0 0 0 -5.2-16.69 8.71 8.71 0 0 0 -.39-2.24 8.85 8.85 0 0 0 -17.21 1.75 8.91 8.91 0 0 0 -5.93-2.84l-2.21-6.76 4.52-1.48a3.15 3.15 0 0 0 -1.95-6l-15.3 5a3.16 3.16 0 1 0 2 6l4.52-1.48 2.2 6.76a8.92 8.92 0 0 0 -3.11 5.8 8.85 8.85 0 0 0 -14.93 8.73 9 9 0 0 0 .94 1.95l-.28.07a8.86 8.86 0 1 0 5.5 16.85c.18-.06.33-.16.51-.23a8.68 8.68 0 0 0 .4 3 8.85 8.85 0 0 0 11 5.72 8.65 8.65 0 0 0 .4 3.2 8.86 8.86 0 0 0 11.05 5.68z" fill="#c8203d"/><g opacity=".3"><path d="m170.86 328a2.89 2.89 0 1 0 3.64 1.85 2.88 2.88 0 0 0 -3.64-1.85z" fill="#fff"/></g><g opacity=".3"><path d="m180.62 336.09a2.89 2.89 0 1 0 3.64 1.85 2.9 2.9 0 0 0 -3.64-1.85z" fill="#fff"/></g><g opacity=".3"><path d="m164.13 341.47h-.1a2.88 2.88 0 1 0 3.75 1.8l-.07-.15a2.89 2.89 0 0 0 -3.58-1.65z" fill="#fff"/></g><g opacity=".3"><path d="m155.51 333a2.87 2.87 0 0 0 -2 2.53 2.82 2.82 0 0 0 .13 1.11 2.89 2.89 0 1 0 1.85-3.64z" fill="#fff"/></g><g opacity=".3"><path d="m139.05 338.37a2.89 2.89 0 1 0 3.65 1.85 2.9 2.9 0 0 0 -3.65-1.85z" fill="#fff"/></g><path d="m205.88 241.18c-20.38 28.4-49.43 48.62-62.9 34.05-7.3-7.89-4-16.14-.57-21.17 6.41-9.36 22.41-14.37 35.65-32.83 20.37-28.4 30.43-56.06 46.27-44.7s1.92 36.25-18.45 64.65z" fill="#00834e"/><path d="m231.79 181.43a11.15 11.15 0 0 0 -3-7l.1-.07c1.89-2.21 3.39-6.35 3.91-8.05a1.85 1.85 0 0 0 -1.1-2.31 1.78 1.78 0 0 0 -2.26 1.13 40.78 40.78 0 0 1 -3.77 7.42c-3.42-1.14-8.6-.7-16.36 2.86a16.5 16.5 0 0 1 -2.79.69l2.21 1.65c3.9 1.93 9.55.63 9.55.63-1.81 2.42-1.07 7.89-1.07 7.89 4.48 0 9.6-3.84 9.6-3.84-.46 8 6.4 8 6.4 8-1.34-4.09-1.15-6.22-1.42-9z" fill="#fff"/><g opacity=".2"><path d="m166.57 238.93c2.28-2 4.19-4.46 6.35-6.63 9.94-10 19.1-21.65 23.53-31.74 0 0 1-3.88 2.7-3.42 1.37.38 1.6 2.2 1.37 3.6-.32 1.94-3.11 8-7 12.95 0 0-16.22 25.11-25.66 29.5a1.74 1.74 0 0 1 -1.41.07 2.17 2.17 0 0 1 -.78-3.34 7.85 7.85 0 0 1 .9-.99z" fill="#fff"/></g><g opacity=".2"><path d="m150.21 251.64c1.75-1.77 7.51-7.36 11.24-7.81a2.14 2.14 0 0 1 .87.08 2.16 2.16 0 0 1 1.51 1.08c.33.85-.46 2-1.27 2.71-2.47 2.19-7.85 6.69-10.82 7.16 0 0-2.08.22-2.22-1.44a2.31 2.31 0 0 1 .69-1.78z" fill="#fff"/></g><path d="m287.22 355.58c0 8.44 8.18 15.28 18.28 15.28s18.28-6.84 18.28-15.28-8.18-15.28-18.28-15.28-18.28 6.84-18.28 15.28zm10.46-8.07c-2.66 3-5 7.66-2.29 13.49.56 1.21-.49 3.53-2.05 1.53-2.84-3.65-3.84-12 2.76-16.77 1.45-1.03 3.73-.68 1.58 1.75z" fill="#ea5442"/><path d="m279.07 342c-14.14 2-16.47 15.3-16.47 25.76 0 18.07 20.63 21.26 44.32 21.26s41.48-3.19 41.48-21.26-19.21-32.76-42.9-32.76c-9.97 0-18.36 5.8-26.43 7zm44.71 13.62c0 8.44-8.18 15.28-18.28 15.28s-18.28-6.84-18.28-15.28 8.18-15.28 18.28-15.28 18.28 6.8 18.28 15.24z" fill="#fff"/><path d="m296.1 345.76c-6.6 4.72-5.6 13.12-2.76 16.77 1.56 2 2.61-.32 2.05-1.53-2.73-5.83-.37-10.49 2.29-13.49 2.15-2.43-.13-2.78-1.58-1.75z" fill="#fff"/><path d="m72.54 169.85c2.92 24.24-28.17 47.92-28.17 47.92s-35.83-15.61-38.75-39.85 4.16-45 28.17-47.92 35.83 15.61 38.75 39.85z" fill="#7f4f21"/><path d="m45.44 198.75h18.49a0 0 0 0 1 0 0v200a9.24 9.24 0 0 1 -9.24 9.25 9.24 9.24 0 0 1 -9.24-9.24v-200a0 0 0 0 1 0 0z" fill="#7f4f21" transform="matrix(.993 -.12 .12 .993 -35.91 8.72)"/><g opacity=".3"><path d="m14 155.58s-2.89 42.53 24.9 47.28c-.03 0-32.74 2.81-24.9-47.28z" fill="#fff"/></g><path d="m438.13 130-7.05 63.89a28.59 28.59 0 0 0 25.29 31.55 28.59 28.59 0 0 0 31.55-25.28l7.08-63.94a5.23 5.23 0 0 0 -4.62-5.77l-1-.11a5.21 5.21 0 0 0 -5.76 4.62l-5.16 46.75a5.24 5.24 0 0 1 -5.77 4.62 5.22 5.22 0 0 1 -4.61-5.77l6-54.41a5.24 5.24 0 0 0 -4.62-5.77l-2.08-.22a5.21 5.21 0 0 0 -5.76 4.62l-6 54.41a5.22 5.22 0 0 1 -5.76 4.62l-.76-.09a5.22 5.22 0 0 1 -4.7-5.72l5.15-46.75a5.23 5.23 0 0 0 -4.62-5.77l-1-.11a5.22 5.22 0 0 0 -5.8 4.63z" fill="#7f4f21"/><path d="m438.05 212h17.61a0 0 0 0 1 0 0v190.46a8.8 8.8 0 0 1 -8.8 8.8 8.8 8.8 0 0 1 -8.8-8.8v-190.46a0 0 0 0 1 -.01 0z" fill="#7f4f21" transform="matrix(.994 .11 -.11 .994 36.86 -47.11)"/><g opacity=".3"><path d="m458.21 218.73s-32.81-.8-19.56-49.73c0 0-7.54 41.95 19.56 49.73" fill="#fff"/></g></g></svg>