<svg id="Layer_1" enable-background="new 0 0 512 512" height="512" viewBox="0 0 512 512" width="512" xmlns="http://www.w3.org/2000/svg"><g clip-rule="evenodd" fill-rule="evenodd"><path d="m444.12 276.95 26.96-80.91h-175.16l-26.96 80.91v148.8h175.16z" fill="#f0c419"/><path d="m444.12 276.95 26.96-80.91 24.92 80.91v148.8h-51.88z" fill="#f29c1f"/><path d="m471.08 196.04h-175.16c-8.9 0-16.17-7.28-16.17-16.17 0-8.9 7.28-16.17 16.17-16.17h175.16c8.9 0 16.17 7.28 16.17 16.17.01 8.89-7.27 16.17-16.17 16.17z" fill="#f29c1f"/><path d="m368.6 330.88c2.67-24.36 6.52-41.69 28.26-58.83.46-.36 1.05-.43 1.58-.17s.84.76.84 1.35v69.93h-17.96l.17-10.19z" fill="#cfd1d3"/><path d="m399.29 343.15h-17.96l-3.91 46.14c-.27 3.24.71 6.13 2.91 8.52s4.99 3.62 8.24 3.62h1.44c3.16 0 5.89-1.16 8.08-3.44s3.24-5.05 3.11-8.21z" fill="#ff6167"/><path d="m318.09 292.87h33.76v10.81c0 3.61-1.33 6.71-3.95 9.2l-4.44 4.22h-16.99l-4.44-4.22c-2.62-2.49-3.95-5.59-3.95-9.2v-10.81z" fill="#cfd1d3"/><path d="m326.48 317.09h16.99l2.93 72.69c.13 3.16-.92 5.93-3.11 8.21s-4.91 3.44-8.07 3.44h-3.72c-3.25 0-6.05-1.23-8.24-3.62-2.2-2.39-3.19-5.28-2.91-8.52z" fill="#ff6167"/><g><path d="m59.31 416.38c-.11.06-.22.11-.34.17l-21.11 10.79-19.36-106.06c-2.18-11.95 3.06-23.62 13.44-29.94l54.34-33.1 28.43 39.57c.38.52.99.83 1.63.83.31 0 .61-.08.89-.22l39.01-19.52 24.96 43.44c.36.62 1.01 1 1.73 1 .09 0 .18 0 .27-.02.81-.11 1.46-.7 1.67-1.49l11.37-44.47 26.91 20.85c.35.27.79.42 1.23.42.24 0 .48-.05.7-.13.65-.24 1.12-.8 1.26-1.47l9.12-45.28 32.01 22.21-.46 2.53c-.03.14-.05.31-.05.45v119.78l-116.16 25.69-25.6-37.51-23.48-55.41c-.43-1.01-1.6-1.49-2.62-1.06-1.01.43-1.49 1.61-1.06 2.62l22.82 53.89z" fill="#ff6167"/><path d="m89.71 256.15 29.01-17.67 34.32 37.55-36.07 18.06z" fill="#fee45a"/><path d="m205.27 242 26.24 9.17-8.45 41.92-25.75-19.94z" fill="#fee45a"/><path d="m182.21 316.08-21.65-37.69-.02-.03c-.05-.1-.14-.2-.21-.28l-38.94-42.61 10.06-27.34 3.86 1.64c7.13 3.02 14.73 4.45 22.47 4.45.56 0 1.13-.01 1.69-.02 3.65-.1 7.23-.34 10.82-1 4.79-.88 9.46-2.36 13.88-4.43l3.76-1.76 13.84 32.55z" fill="#f9cdaf"/><path d="m169.58 209.25c-3.39.62-6.78.85-10.21.94-18.06.48-34.06-7.42-44.66-22.05-11.24-15.5-19.12-35.34-25.13-53.41l-1.75-5.26h68.68c12.09 0 22.76-4.65 31.01-13.49l23.07-24.73 1.58 7.56c4.46 21.4 4.68 42.55 1.04 64.1l-.02.1-.02.1c-.93 4.18-2.12 8.32-3.62 12.34-6.68 17.86-21.18 30.36-39.97 33.8z" fill="#f9cdaf"/><g fill="#ff6167"><path d="m128.6 125.47h-42.08l-.8-2.96c-4.53-16.77-6.06-35.6.73-52 6.32-15.26 18.57-25.26 34.05-30.58 15.04-5.17 32.45-5.54 47.77-1.46 12.77 3.4 26.98 10.89 32.34 23.71 1.86 4.46 3.58 8.97 5.15 13.54l1.82 5.3h-24.66c-13.78 0-25.82 6.06-34.04 17.12z"/><path d="m152.1 100.54c7.5-10.1 18.25-15.5 30.83-15.5h27.98l-26.31 28.22c-7.52 8.07-17.05 12.22-28.09 12.22h-22.93z"/><path d="m212.97 85.03h13.25c11.99 0 22.4 4.99 29.92 14.33l6.52 8.1c1.02 1.27 1.31 2.78.85 4.33-.48 1.6-1.59 2.71-3.2 3.18l-40.59 11.91-.33-4.98c-.71-10.78-2.47-21.43-5.14-31.89z"/></g><path d="m92.47 166.88c-3.26.62-6.63.28-9.68-1.05-3.79-1.66-6.74-4.69-8.16-8.58s-1.11-8.11.71-11.82c1.38-2.81 3.54-5.13 6.21-6.76l4.23-2.57 1.63 4.68c2.42 6.95 5.05 13.84 7.99 20.58l2 4.59z" fill="#f9cdaf"/><path d="m310.36 391.24c3.03-.67 5.93-.02 8.39 1.89s3.8 4.52 3.92 7.64l.02.7c.11 4.37-2.35 8.82-6.82 9.88l-49.6 11.78c-1 .24-1.66 1.19-1.52 2.21s1.03 1.76 2.06 1.73l91.33-3.17c2.86-.1 5.39.85 7.45 2.85 2.08 2.01 3.11 4.48 3.08 7.35v.18c-.05 5.24-3.98 9.61-9.24 9.99l-77.27 5.54c-20.12 1.44-39.97 4.78-59.6 9.33-18.56 4.3-36.82 9.65-55.03 15.23-5.27 1.61-10.08 1.75-15.53 1.86-.75.02-1.5.03-2.25.05-12.19.33-21.65-6.03-30.8-13.37l-55.24-44.28 59.09-30.19 25.5 37.34c.46.68 1.28 1.01 2.08.83z" fill="#f9cdaf"/><path d="m375.24 325.87 7.23 1.17c2.94.47 5.09 3.04 5.04 6.02l-.07 4.09h5.86v-53.93c-12.55 12.64-15.94 25.8-18.06 42.65zm19.98 64.16-1.68-40.88h-6.69l-3.45 40.65c-.13 1.57.29 2.79 1.36 3.96 1.06 1.16 2.24 1.68 3.82 1.68h1.45c1.53 0 2.68-.49 3.74-1.6s1.5-2.28 1.45-3.81zm-32.57-59.81c2.64-24.08 6.56-44 30.51-62.89 2.27-1.79 5.3-2.12 7.9-.86 2.62 1.27 4.24 3.85 4.24 6.74v69.81l1.91 46.51c.19 4.79-1.46 9.15-4.78 12.61s-7.61 5.29-12.4 5.29h-1.45c-4.94 0-9.32-1.92-12.66-5.56s-4.89-8.16-4.47-13.08l3.89-45.94.08-4.79-7.76-1.26c-3.16-.51-5.36-3.4-5.01-6.58zm2.01 103.85c.02-1.8-.57-3.22-1.86-4.46-1.27-1.24-2.71-1.79-4.53-1.72l-91.33 3.17c-3.09.12-5.75-2.13-6.16-5.19s1.56-5.93 4.56-6.64l49.6-11.78c2.57-.61 3.83-3.42 3.75-5.89l-.02-.65c-.07-1.93-.84-3.44-2.37-4.63-1.52-1.18-3.18-1.56-5.07-1.14l-160.01 35.38c-2.39.53-4.86-.45-6.25-2.48l-23.51-34.43-50.44 25.77 50.42 40.41c9.85 7.91 18.01 12.77 28.19 12.49.77-.02 1.52-.03 2.27-.05 5.35-.11 9.57-.2 14.44-1.69 35.43-10.86 73.54-21.71 115.52-24.72l77.27-5.54c3.12-.22 5.5-2.82 5.53-6.04zm-248.94-51.01-58.29 29.78c-.09.05-.19.09-.28.14l-16.33 8.34-18.38-100.76c-1.9-10.41 2.54-20.3 11.58-25.81l51.18-31.17 26.27 36.56c1.16 1.61 3 2.5 4.88 2.5.9 0 1.82-.2 2.68-.64l35.63-17.83 23.08 40.17c1.08 1.88 3.07 3.01 5.2 3.01.27 0 .54-.02.81-.05 2.42-.33 4.4-2.09 5-4.46l9.86-38.57 22.1 17.12c1.07.83 2.37 1.26 3.68 1.26.7 0 1.41-.13 2.09-.38 1.95-.72 3.38-2.4 3.79-4.43l7.92-39.31 24.9 17.27c-.07.38-.12.77-.12 1.17v116.57l-110.38 24.41-23.86-34.96-23.32-55.05c-1.29-3.05-4.81-4.48-7.86-3.19s-4.48 4.81-3.19 7.86zm-20.24-125.74 22.75 31.66 28.29-14.16-28.53-31.22zm38.27-43.87-7.77 21.12 37.3 40.81c.3.32.56.68.77 1.06l16.73 29.12 16.78-65.68-11.69-27.49c-4.65 2.18-9.63 3.79-14.85 4.74-4.3.79-8.2.98-11.44 1.07-.6.02-1.2.02-1.8.02-8.56-.01-16.65-1.65-24.03-4.77zm-15.81-27.65c9.86 13.6 24.53 20.85 41.31 20.4 2.79-.07 6.11-.23 9.6-.88 17.23-3.16 30.69-14.55 36.93-31.27 1.37-3.66 2.53-7.64 3.46-11.81 3.61-21.37 3.32-41.85-1.01-62.62l-17.8 19.09c-9 9.66-20.73 14.76-33.93 14.76h-63.13c7.6 22.84 15.67 40.04 24.57 52.33zm-26.22-22.85c-2.78-6.37-5.47-13.31-8.1-20.86-2.03 1.23-3.66 2.99-4.7 5.1-1.37 2.79-1.56 5.87-.54 8.68 1.03 2.81 3.17 5.04 6.01 6.29 2.31 1.01 4.85 1.26 7.33.79zm91.21-73.92h18.78l-20.04 21.5c-6.77 7.26-15.24 10.94-25.16 10.94h-14.98l13.78-18.55c6.74-9.09 16.29-13.89 27.62-13.89zm-93.35 32.44c-10.48-38.77 1.25-67.1 32.23-77.75 29.46-10.13 66.66-.22 75.11 20.01 1.87 4.47 3.55 8.9 5.06 13.3h-19.06c-15.05 0-28.28 6.65-37.25 18.74l-19.09 25.71h-37zm128.54-32.44c2.79 10.93 4.54 21.75 5.26 32.61l35.8-10.51c.3-.09.4-.18.49-.49.09-.3.07-.43-.13-.68l-6.52-8.1c-6.75-8.4-16.02-12.84-26.8-12.84h-8.1zm-10.05 158.18-6.23 24.38 18.58 14.38 6.48-32.18zm129.64 75.88 2.7 66.94c.06 1.53-.38 2.7-1.44 3.81-1.06 1.1-2.22 1.6-3.75 1.6h-3.72c-.68 0-1.29-.11-1.84-.31-.73-2.1-1.84-4.04-3.3-5.74l5.64-66.29h5.71zm-13.61-24.22v4.81c0 1.96.66 3.5 2.08 4.85l2.7 2.57h12.2l2.7-2.57c1.42-1.35 2.08-2.89 2.08-4.85v-4.81zm-49.13-20.95 25.28-75.89h162.52l-5.04 15.11h-144.46c-3.31 0-6 2.69-6 6s2.69 6 6 6h140.46l-15.29 45.9c-.21.61-.31 1.26-.31 1.9v142.8h-68.38c-3.38-2.68-7.45-4-11.9-3.86l-35.3 1.23c3.51-2.17 6.11-5.64 7.34-9.76.53.04 1.07.07 1.61.07h3.72c4.79 0 9.08-1.83 12.4-5.28 3.32-3.46 4.97-7.82 4.78-12.61l-2.82-69.98 2.46-2.34c3.81-3.62 5.82-8.3 5.82-13.55v-10.81c0-.25-.02-.49-.05-.73.03-.24.05-.48.05-.73v-21.22c0-3.31-2.68-6-6-6-3.31 0-6 2.68-6 6v16.68h-4.88v-16.68c0-3.31-2.69-6-6-6s-6 2.68-6 6v16.68h-4.88v-16.68c0-3.31-2.69-6-6-6-3.32 0-6 2.68-6 6v21.22c0 .25.02.49.05.73-.03.24-.05.48-.05.73v10.81c0 5.25 2.01 9.93 5.82 13.55l2.34 2.23-5.41 63.67c-2.03-.25-4.12-.17-6.21.29l-33.67 7.45zm10.79-98.06c0 5.61 4.56 10.18 10.17 10.18h175.16c5.61 0 10.18-4.56 10.18-10.18 0-5.61-4.57-10.17-10.18-10.17h-175.17c-5.6 0-10.16 4.57-10.16 10.17zm172.26 239.89h24.1l-12.05-12.8zm31.99-141.9-19.14-62.16-20.74 62.23v132.71l13.94-14.81v-118.87c0-3.31 2.69-6 6-6s6 2.69 6 6v118.87l13.94 14.81zm12-.9v148.8c0 3.32-2.69 6-6 6h-119.51c.1.8.16 1.6.15 2.42v.18c-.1 9.54-7.27 17.23-16.68 17.9l-77.26 5.54c-40.73 2.92-78.09 13.57-112.86 24.22-6.47 1.98-11.93 2.1-17.72 2.22-.72.01-1.46.03-2.21.05-.36.01-.72.01-1.08.01-14.78 0-25.76-7.79-34.92-15.13l-54.62-43.8-13.75 7.03c-3.24 1.65-6.97 1.67-10.23.06s-5.5-4.58-6.15-8.16l-18.53-101.57c-2.81-15.42 3.75-30.06 17.14-38.21l86.4-52.63 8.95-24.31c-5.6-3.91-10.61-8.83-14.89-14.73-3.94-5.43-7.7-11.71-11.33-18.86-2.49.79-5.04 1.21-7.58 1.21-3.33 0-6.63-.68-9.73-2.03-5.88-2.57-10.31-7.24-12.48-13.17-2.16-5.92-1.79-12.35 1.04-18.11 2.47-5.01 6.56-8.97 11.65-11.35-.12-.37-.23-.75-.35-1.13-.03-.11-.07-.23-.1-.34-.41-1.3-.81-2.61-1.21-3.94-.02-.05-.03-.1-.05-.15-6.64-24.32-5.69-45.1 2.82-61.78 7.35-14.38 20.14-25.04 37-30.84 16.47-5.66 35.81-6.2 53.06-1.46 18.13 4.99 31.62 15.26 37.02 28.19 2.52 6.04 4.73 12 6.64 17.92h11.58c14.54 0 27.04 5.99 36.15 17.32l6.52 8.11c2.71 3.37 3.52 7.66 2.23 11.79-1.29 4.12-4.41 7.19-8.56 8.4l-38.8 11.39c-.06 10-.96 20.08-2.71 30.36-.01.09-.03.19-.05.29-1.05 4.77-2.39 9.33-3.97 13.56-4.27 11.43-11.51 21-20.76 27.9l12.09 28.45 32.32 11.29c.51.18.99.43 1.44.74l24.88 17.29 21.08-63.29c-8.36-3.17-14.32-11.27-14.32-20.74 0-12.22 9.94-22.17 22.17-22.17h175.16c12.23 0 22.18 9.95 22.18 22.17 0 9.52-6.03 17.66-14.48 20.79l22.95 74.53c.18.58.27 1.17.27 1.77zm-361.27-99.49c1.5-2.96 5.11-4.13 8.07-2.62 10.38 5.3 21.77 3.5 27.68-4.37 1.99-2.65 5.75-3.18 8.4-1.19s3.18 5.75 1.19 8.4c-5.99 7.99-15.23 12.21-25.18 12.21-5.78 0-11.79-1.42-17.54-4.36-2.97-1.5-4.14-5.12-2.62-8.07z" fill="#222124"/></g></g></svg>