<svg id="Capa_1" enable-background="new 0 0 512 512" height="512" viewBox="0 0 512 512" width="512" xmlns="http://www.w3.org/2000/svg"><g><path d="m352.237 355.498h-35.79v14.939c0 3.411-.242 6.764-.664 10.061h36.453v-25z" fill="#fef0ae"/><g><path d="m489.5 390.998h-132.263c-2.761 0-5-2.239-5-5v-32c0-2.761 2.239-5 5-5h132.263c8.284 0 15 6.716 15 15v12c0 8.284-6.716 15-15 15z" fill="#fe9901"/></g><g><path d="m394.868 370.866c-2.761 0-5-2.239-5-5v-16.868h-32.632c-2.761 0-5 2.239-5 5v32c0 2.761 2.239 5 5 5h132.264c8.284 0 15-6.716 15-15v-5.132z" fill="#fb8801"/></g><g><path d="m237.887 448.998h-151.826c-43.388 0-78.561-35.173-78.561-78.561v-18.439c0-1.657 1.343-3 3-3h302.947c1.657 0 3 1.343 3 3v18.439c0 43.388-35.173 78.561-78.56 78.561z" fill="#fb2b3a"/></g><g><path d="m67 370.437v-18.439c0-1.657 1.343-3 3-3h-59.5c-1.657 0-3 1.343-3 3v18.439c0 43.388 35.173 78.561 78.561 78.561h59.5c-43.388 0-78.561-35.173-78.561-78.561z" fill="#e41f2d"/></g><g><g><path d="m160.342 143.492c-2.643-3.222-5.823-6.097-9.428-8.532-.717-.484-.545-1.58.284-1.828 7.462-2.232 13.86-6.406 18.352-11.824.316-.381.316-.945 0-1.326-4.345-5.242-10.469-9.325-17.617-11.609-.734-.234-.974-1.131-.451-1.697 10.229-11.06 14.884-25.09 13.622-37.85-.048-.49-.443-.885-.934-.934-12.76-1.262-26.79 3.394-37.85 13.622-.565.523-1.462.283-1.697-.451-2.284-7.149-6.367-13.272-11.609-17.617-.381-.316-.945-.316-1.326 0-5.419 4.492-9.592 10.89-11.824 18.353-.248.829-1.344 1.001-1.828.284-2.435-3.605-5.31-6.785-8.532-9.428-.381-.313-.94-.313-1.321 0-10.379 8.513-17.168 22.593-17.183 38.527 0 .034.001.068.004.102l3.728 46.034c.041.505.442.906.947.947l46.034 3.728c.034.003.068.004.102.004 15.934-.015 30.014-6.804 38.527-17.185.312-.381.312-.939 0-1.32z" fill="#00c285"/></g><g><g><path d="m105.482 114.314c-.003-.037-.004-.073-.004-.11.015-16.062 6.416-30.374 16.394-39.67-2.29-4.353-5.296-8.137-8.855-11.087-.381-.316-.945-.316-1.326 0-5.419 4.492-9.592 10.89-11.824 18.352-.248.829-1.344 1.001-1.828.284-2.435-3.605-5.31-6.785-8.532-9.427-.381-.312-.94-.312-1.321 0-10.382 8.512-17.171 22.592-17.186 38.526 0 .034.001.068.004.102l3.728 46.034c.041.505.442.906.947.947l33.583 2.719z" fill="#07b27b"/></g></g></g><g><path d="m217.277 170.752-18.367 18.367c-1.172 1.172-3.071 1.172-4.243 0l-13.435-13.435c-1.172-1.172-1.172-3.071 0-4.243l18.367-18.367c1.172-1.172 3.071-1.172 4.243 0l13.435 13.435c1.172 1.171 1.172 3.071 0 4.243z" fill="#a2e62e"/></g><g><path d="m198.076 175.684c-1.172-1.172-1.172-3.071 0-4.243l12.067-12.067-6.301-6.301c-1.172-1.172-3.071-1.172-4.243 0l-18.367 18.367c-1.172 1.172-1.172 3.071 0 4.243l13.435 13.435c1.172 1.172 3.071 1.172 4.243 0l6.301-6.301z" fill="#97d729"/></g><g><path d="m235.731 99.921-18.367-18.367c-1.172-1.172-1.172-3.071 0-4.243l13.435-13.435c1.172-1.172 3.071-1.172 4.243 0l18.367 18.367c1.172 1.172 1.172 3.071 0 4.243l-13.435 13.435c-1.172 1.172-3.071 1.172-4.243 0z" fill="#a2e62e"/></g><g><path d="m234.076 81.554c-1.172-1.172-1.172-3.071 0-4.243l7.2-7.2-6.235-6.235c-1.172-1.172-3.071-1.172-4.243 0l-13.435 13.435c-1.172 1.172-1.172 3.071 0 4.243l18.367 18.367c1.172 1.172 3.071 1.172 4.243 0l6.235-6.235z" fill="#97d729"/></g><g><path d="m273.444 280.921-18.367-18.367c-1.172-1.172-1.172-3.071 0-4.243l13.435-13.435c1.172-1.172 3.071-1.172 4.243 0l18.367 18.367c1.172 1.172 1.172 3.071 0 4.243l-13.435 13.435c-1.172 1.172-3.072 1.172-4.243 0z" fill="#a2e62e"/></g><g><path d="m261.455 268.933 7.056-7.056c1.172-1.172 3.071-1.172 4.243 0l11.989 11.989 6.379-6.379c1.172-1.172 1.172-3.071 0-4.243l-18.367-18.367c-1.172-1.172-3.071-1.172-4.243 0l-13.435 13.435c-1.172 1.172-1.172 3.071 0 4.243z" fill="#97d729"/></g><g><path d="m142.955 291.068c-6.937-6.937-9.77-16.668-8.75-26.808l-97.292-97.292c-2.097-2.097-5.512-1.953-7.476.269-30.45 34.462-29.199 87.295 3.753 120.248 31.386 31.386 80.796 33.99 115.201 7.857-1.949-1.194-3.775-2.612-5.436-4.274z" fill="#fff9e2"/><path d="m134.204 264.26-80.028-80.028c-22.681 22.681-22.681 59.586 0 82.267 21.89 21.89 57.025 22.646 79.839 2.283-.021-1.493.037-3.002.189-4.522z" fill="#fef0ae"/><g><path d="m75.162 245.512c11.109 11.109 29.185 11.109 40.294 0l-40.294-40.294c-11.109 11.11-11.109 29.185 0 40.294z" fill="#fff9e2"/></g></g><g><path d="m313.911 184.736c1.292 1.292 3.417 1.167 4.568-.253 10.25-12.658 9.488-31.272-2.284-43.045-11.773-11.773-30.387-12.534-43.045-2.284-1.421 1.15-1.546 3.275-.253 4.568z" fill="#fb2b3a"/></g><g><path d="m324.56 158.438c.228.228.444.463.664.696-1.032-6.478-4.036-12.703-9.029-17.696-11.773-11.773-30.387-12.534-43.045-2.284-1.421 1.15-1.546 3.275-.253 4.568l10.812 10.812c12.539-8.505 29.74-7.207 40.851 3.904z" fill="#e41f2d"/></g><g><path d="m148.787 234.785c-17.153 17.153-19.764 42.352-5.833 56.284 2.134 2.134 4.531 3.879 7.124 5.243 6.021 3.168 13.426 1.911 18.237-2.9l9.229-9.229 13.76 13.76c1.187 1.187 3.112 1.187 4.3 0l16.339-16.339c1.187-1.187 1.187-3.112 0-4.3l-13.76-13.76 9.224-9.224c4.931-4.931 6.03-12.524 2.689-18.645-1.331-2.439-3.004-4.699-5.027-6.721-13.93-13.933-39.129-11.322-56.282 5.831z" fill="#f6a96c"/></g><g><g><path d="m168.12 291.068c-13.932-13.932-11.32-39.131 5.833-56.283 6.085-6.085 13.184-10.33 20.432-12.666-13.997-5.23-32.237-.695-45.597 12.666-17.153 17.153-19.764 42.352-5.833 56.283 2.134 2.134 4.531 3.878 7.124 5.243 6.021 3.168 13.426 1.911 18.237-2.9l1.122-1.122c-.447-.395-.892-.794-1.318-1.221z" fill="#ea9b58"/></g></g><g><path d="m489.5 341.498h-13.5c-4.143 0-7.5 3.357-7.5 7.5s3.357 7.5 7.5 7.5h13.5c4.136 0 7.5 3.364 7.5 7.5v12c0 4.136-3.364 7.5-7.5 7.5h-129.764v-27h81.264c4.143 0 7.5-3.357 7.5-7.5s-3.357-7.5-7.5-7.5h-83.764c-4.719 0-8.834 2.63-10.961 6.5h-23.124c-1.576-3.811-5.33-6.5-9.704-6.5h-302.947c-5.79 0-10.5 4.71-10.5 10.5v18.439c0 47.454 38.606 86.061 86.061 86.061h102.939c4.143 0 7.5-3.357 7.5-7.5s-3.357-7.5-7.5-7.5h-102.939c-39.183 0-71.061-31.878-71.061-71.061v-13.939h293.947v13.939c0 39.183-31.878 71.061-71.061 71.061h-13.886c-4.143 0-7.5 3.357-7.5 7.5s3.357 7.5 7.5 7.5h13.887c41.438 0 76.123-29.439 84.254-68.5h22.771c.962 5.943 6.114 10.5 12.325 10.5h132.263c12.406 0 22.5-10.094 22.5-22.5v-12c0-12.407-10.094-22.5-22.5-22.5zm-165.553 28.939v-7.439h20.789v10h-20.854c.025-.853.065-1.702.065-2.561z"/><path d="m67.256 157.926c.341 4.188 3.627 7.475 7.817 7.815l45.999 3.725c.248.021.495.031.75.031 17.53-.017 34.098-7.466 44.323-19.935 2.569-3.139 2.567-7.691-.004-10.827-.797-.972-1.635-1.916-2.511-2.831 4.505-2.602 8.459-5.909 11.696-9.813 2.614-3.157 2.614-7.739-.002-10.896-3.48-4.199-7.803-7.716-12.744-10.405 7.641-11.077 11.237-24.063 9.987-36.707-.401-4.033-3.62-7.252-7.658-7.654-12.636-1.249-25.625 2.348-36.703 9.988-2.689-4.942-6.206-9.264-10.405-12.745-3.156-2.615-7.739-2.614-10.897.001-3.904 3.236-7.21 7.189-9.812 11.694-.915-.876-1.858-1.713-2.829-2.509-3.137-2.574-7.69-2.576-10.835-.001-12.462 10.221-19.911 26.788-19.928 44.325 0 .248.01.495.028.708zm21.588-75.508c1.06 1.205 2.056 2.495 2.98 3.864 1.833 2.714 5.109 4.149 8.348 3.652 3.239-.495 5.939-2.845 6.88-5.986 1.157-3.87 2.985-7.442 5.312-10.448 2.205 2.836 3.941 6.164 5.117 9.847.896 2.8 3.123 4.919 5.959 5.666 2.834.747 5.813.004 7.975-1.992 7.52-6.954 17.029-11.141 26.313-11.752-.611 9.286-4.798 18.797-11.754 26.317-1.993 2.157-2.736 5.137-1.989 7.972.747 2.836 2.866 5.063 5.667 5.959 3.682 1.176 7.011 2.912 9.846 5.116-3.007 2.327-6.578 4.155-10.448 5.312-3.142.94-5.491 3.641-5.986 6.88-.495 3.237.938 6.514 3.653 8.349 1.368.925 2.658 1.919 3.862 2.979-7.376 6.494-17.648 10.278-28.524 10.343l-30.477-2.468 34.769-34.769c2.929-2.93 2.929-7.678 0-10.607-2.93-2.928-7.678-2.928-10.607 0l-34.769 34.769-2.468-30.476c.063-10.881 3.849-21.154 10.341-28.527z"/><path d="m175.929 180.988 13.435 13.435c2.048 2.047 4.736 3.07 7.425 3.07s5.378-1.023 7.426-3.07l18.367-18.367c1.983-1.983 3.075-4.62 3.075-7.425 0-2.806-1.093-5.443-3.075-7.424l-13.435-13.437c-4.096-4.094-10.755-4.092-14.851 0l-18.367 18.367c-4.094 4.095-4.094 10.756 0 14.851zm25.792-19.429 7.071 7.071-12.004 12.003-7.07-7.07z"/><path d="m230.428 105.225c1.983 1.983 4.62 3.075 7.425 3.075 2.806 0 5.443-1.093 7.425-3.075l13.433-13.434c1.985-1.983 3.078-4.621 3.078-7.427 0-2.805-1.092-5.441-3.075-7.425l-18.367-18.367c-4.095-4.094-10.754-4.094-14.851 0l-13.435 13.435c-4.094 4.095-4.094 10.756 0 14.851zm2.492-32.863 12.004 12.003-7.071 7.071-12.003-12.004z"/><path d="m249.772 267.858 18.367 18.367c2.048 2.047 4.736 3.07 7.425 3.07s5.378-1.023 7.426-3.071l13.432-13.433c1.985-1.983 3.078-4.621 3.078-7.427 0-2.805-1.092-5.441-3.075-7.425l-18.367-18.367c-1.983-1.983-4.62-3.075-7.425-3.075-2.806 0-5.443 1.093-7.424 3.075l-13.437 13.435c-4.093 4.095-4.093 10.756 0 14.851zm20.861-14.496 12.003 12.003-7.071 7.071-12.003-12.003z"/><path d="m95.356 320.672c18.772 0 37.555-5.532 53.734-16.611 8.396 3.211 17.959 1.222 24.53-5.347l3.925-3.926 8.456 8.457c2.056 2.055 4.755 3.082 7.453 3.082 2.699 0 5.398-1.027 7.454-3.082l16.34-16.34c1.99-1.991 3.087-4.639 3.087-7.453 0-2.815-1.097-5.463-3.087-7.454l-8.457-8.456 3.922-3.92c7.236-7.237 8.868-18.562 3.969-27.541-1.695-3.105-3.817-5.943-6.308-8.433-16.833-16.831-46.84-14.216-66.89 5.832-.001 0-.001 0-.001.001-6.029 6.029-10.468 12.96-13.29 20.16l-87.978-87.978c-2.445-2.444-5.828-3.772-9.285-3.679-3.479.106-6.802 1.668-9.114 4.285-33.262 37.644-31.474 94.974 4.069 130.518 18.531 18.53 42.977 27.885 67.471 27.885zm58.734-80.584c14.204-14.2 34.693-16.816 45.678-5.831 1.478 1.477 2.737 3.162 3.746 5.01 1.733 3.177 1.154 7.186-1.408 9.748l-9.225 9.224c-1.407 1.406-2.197 3.314-2.197 5.304s.79 3.896 2.196 5.304l10.606 10.605-10.032 10.033-10.606-10.606c-2.93-2.928-7.678-2.928-10.607 0l-9.229 9.229c-2.52 2.521-6.401 3.168-9.441 1.566-1.967-1.035-3.755-2.35-5.312-3.908-10.985-10.985-8.369-31.476 5.831-45.678zm-77.948-23.284 27.729 27.729c-7.709 3.437-17.087 1.994-23.404-4.324-6.319-6.317-7.76-15.692-4.325-23.405zm-42.707-42.707 10.437 10.437c-6.898 8.675-11.456 18.915-13.296 30.001-.679 4.087 2.084 7.949 6.17 8.627 4.085.678 7.948-2.084 8.627-6.17 1.323-7.973 4.466-15.377 9.195-21.763l10.548 10.548c-9.049 13.943-7.471 32.823 4.743 45.038 7.017 7.017 16.233 10.524 25.45 10.524 6.829 0 13.655-1.93 19.588-5.781l10.548 10.548c-19.821 14.681-48.01 13.044-65.965-4.912-4.06-4.059-7.374-8.744-9.853-13.925-1.787-3.736-6.266-5.317-10.002-3.529-3.736 1.787-5.316 6.265-3.529 10.002 3.213 6.719 7.512 12.795 12.777 18.06 12.803 12.802 29.619 19.203 46.437 19.203 11.58 0 23.148-3.06 33.415-9.138 1.568 4.664 3.991 8.99 7.294 12.755-30.924 18.19-71.271 13.813-97.526-12.442-29.362-29.36-31.389-76.363-5.058-108.083z"/><path d="m308.607 190.04c1.982 1.982 4.679 3.093 7.47 3.093.183 0 .366-.005.549-.015 2.994-.156 5.794-1.584 7.682-3.915 12.819-15.832 11.611-38.646-2.81-53.068-14.423-14.421-37.236-15.63-53.068-2.81-2.33 1.886-3.757 4.684-3.915 7.676-.157 2.985.964 5.908 3.077 8.024zm2.284-43.298c7.776 7.775 9.384 19.469 4.492 28.859l-33.353-33.351c9.392-4.892 21.085-3.286 28.861 4.492z"/></g></g></svg>