<svg xmlns="http://www.w3.org/2000/svg" version="1.1" xmlns:xlink="http://www.w3.org/1999/xlink" xmlns:svgjs="http://svgjs.dev/svgjs" width="1440" height="560" preserveAspectRatio="none" viewBox="0 0 1440 560"><g mask="url(&quot;#SvgjsMask1474&quot;)" fill="none"><rect width="1440" height="560" x="0" y="0" fill="url(&quot;#SvgjsLinearGradient1475&quot;)"></rect><path d="M1440 0L1045.54 0L1440 118.79z" fill="rgba(255, 255, 255, .1)"></path><path d="M1045.54 0L1440 118.79L1440 296.93L673.48 0z" fill="rgba(255, 255, 255, .075)"></path><path d="M673.48 0L1440 296.93L1440 299.11L456.29 0z" fill="rgba(255, 255, 255, .05)"></path><path d="M456.28999999999996 0L1440 299.11L1440 364.32L375.40999999999997 0z" fill="rgba(255, 255, 255, .025)"></path><path d="M0 560L66.36 560L0 493.98z" fill="rgba(0, 0, 0, .1)"></path><path d="M0 493.98L66.36 560L823.11 560L0 333.06000000000006z" fill="rgba(0, 0, 0, .075)"></path><path d="M0 333.06L823.11 560L873.49 560L0 148.32z" fill="rgba(0, 0, 0, .05)"></path><path d="M0 148.32L873.49 560L1172.37 560L0 61.64999999999999z" fill="rgba(0, 0, 0, .025)"></path></g><defs><mask id="SvgjsMask1474"><rect width="1440" height="560" fill="#ffffff"></rect></mask><linearGradient x1="50%" y1="100%" x2="50%" y2="0%" gradientUnits="userSpaceOnUse" id="SvgjsLinearGradient1475"><stop stop-color="rgba(27, 101, 48, 1)" offset="0"></stop><stop stop-color="rgba(0, 158, 45, 1)" offset="1"></stop></linearGradient></defs></svg>